{
    "asset" : {
        "generator" : "Khronos glTF Blender I/O v0.9.36",
        "version" : "2.0"
    },
    "scene" : 0,
    "scenes" : [
        {
            "name" : "Scene",
            "nodes" : [
                0,
                1,
                2,
                3,
                4
            ]
        }
    ],
    "nodes" : [
        {
            "name" : "Light",
            "rotation" : [
                0.16907575726509094,
                0.7558803558349609,
                -0.27217137813568115,
                0.570947527885437
            ],
            "translation" : [
                4.076245307922363,
                5.903861999511719,
                -1.0054539442062378
            ]
        },
        {
            "name" : "Camera",
            "rotation" : [
                0.483536034822464,
                0.33687159419059753,
                -0.20870360732078552,
                0.7804827094078064
            ],
            "translation" : [
                7.358891487121582,
                4.958309173583984,
                6.925790786743164
            ]
        },
        {
            "mesh" : 0,
            "name" : "Icosphere",
            "scale" : [
                3.0607173442840576,
                22.439165115356445,
                3.0607173442840576
            ],
            "translation" : [
                0.4118398129940033,
                11.333600997924805,
                -2.5544610023498535
            ]
        },
        {
            "mesh" : 1,
            "name" : "Icosphere.001",
            "rotation" : [
                0,
                0.3316919207572937,
                0,
                0.9433877468109131
            ],
            "scale" : [
                2.164771795272827,
                14.852410316467285,
                2.3087644577026367
            ],
            "translation" : [
                1.4949544668197632,
                7.536789894104004,
                1.8275558948516846
            ]
        },
        {
            "mesh" : 2,
            "name" : "Icosphere.002",
            "rotation" : [
                0,
                -0.9357087016105652,
                0,
                -0.35277360677719116
            ],
            "scale" : [
                2.1608245372772217,
                18.63245964050293,
                2.1608245372772217
            ],
            "translation" : [
                -2.506351947784424,
                9.431660652160645,
                0.6974905133247375
            ]
        }
    ],
    "materials" : [
        {
            "doubleSided" : true,
            "name" : "Material.008",
            "pbrMetallicRoughness" : {
                "baseColorFactor" : [
                    0.09120618551969528,
                    0.04153219610452652,
                    0.255814790725708,
                    1
                ],
                "metallicFactor" : 0,
                "roughnessFactor" : 0.7590909004211426
            }
        }
    ],
    "meshes" : [
        {
            "name" : "Icosphere.002",
            "primitives" : [
                {
                    "attributes" : {
                        "POSITION" : 0,
                        "NORMAL" : 1,
                        "TEXCOORD_0" : 2
                    },
                    "indices" : 3,
                    "material" : 0
                }
            ]
        },
        {
            "name" : "Icosphere.003",
            "primitives" : [
                {
                    "attributes" : {
                        "POSITION" : 4,
                        "NORMAL" : 5,
                        "TEXCOORD_0" : 6
                    },
                    "indices" : 3,
                    "material" : 0
                }
            ]
        },
        {
            "name" : "Icosphere.004",
            "primitives" : [
                {
                    "attributes" : {
                        "POSITION" : 7,
                        "NORMAL" : 8,
                        "TEXCOORD_0" : 9
                    },
                    "indices" : 3,
                    "material" : 0
                }
            ]
        }
    ],
    "accessors" : [
        {
            "bufferView" : 0,
            "componentType" : 5126,
            "count" : 50,
            "max" : [
                0.9230883121490479,
                1.0753307342529297,
                0.6822870969772339
            ],
            "min" : [
                -0.9791769981384277,
                -0.5064389705657959,
                -0.5991471409797668
            ],
            "type" : "VEC3"
        },
        {
            "bufferView" : 1,
            "componentType" : 5126,
            "count" : 50,
            "type" : "VEC3"
        },
        {
            "bufferView" : 2,
            "componentType" : 5126,
            "count" : 50,
            "type" : "VEC2"
        },
        {
            "bufferView" : 3,
            "componentType" : 5123,
            "count" : 54,
            "type" : "SCALAR"
        },
        {
            "bufferView" : 4,
            "componentType" : 5126,
            "count" : 50,
            "max" : [
                0.9230883121490479,
                1.0753307342529297,
                0.6822870969772339
            ],
            "min" : [
                -0.9791769981384277,
                -0.5064389705657959,
                -0.5991471409797668
            ],
            "type" : "VEC3"
        },
        {
            "bufferView" : 5,
            "componentType" : 5126,
            "count" : 50,
            "type" : "VEC3"
        },
        {
            "bufferView" : 6,
            "componentType" : 5126,
            "count" : 50,
            "type" : "VEC2"
        },
        {
            "bufferView" : 7,
            "componentType" : 5126,
            "count" : 50,
            "max" : [
                0.9230883121490479,
                1.0753307342529297,
                0.6822870969772339
            ],
            "min" : [
                -0.9791769981384277,
                -0.5064389705657959,
                -0.5991471409797668
            ],
            "type" : "VEC3"
        },
        {
            "bufferView" : 8,
            "componentType" : 5126,
            "count" : 50,
            "type" : "VEC3"
        },
        {
            "bufferView" : 9,
            "componentType" : 5126,
            "count" : 50,
            "type" : "VEC2"
        }
    ],
    "bufferViews" : [
        {
            "buffer" : 0,
            "byteLength" : 600,
            "byteOffset" : 0
        },
        {
            "buffer" : 0,
            "byteLength" : 600,
            "byteOffset" : 600
        },
        {
            "buffer" : 0,
            "byteLength" : 400,
            "byteOffset" : 1200
        },
        {
            "buffer" : 0,
            "byteLength" : 108,
            "byteOffset" : 1600
        },
        {
            "buffer" : 0,
            "byteLength" : 600,
            "byteOffset" : 1708
        },
        {
            "buffer" : 0,
            "byteLength" : 600,
            "byteOffset" : 2308
        },
        {
            "buffer" : 0,
            "byteLength" : 400,
            "byteOffset" : 2908
        },
        {
            "buffer" : 0,
            "byteLength" : 600,
            "byteOffset" : 3308
        },
        {
            "buffer" : 0,
            "byteLength" : 600,
            "byteOffset" : 3908
        },
        {
            "buffer" : 0,
            "byteLength" : 400,
            "byteOffset" : 4508
        }
    ],
    "buffers" : [
        {
            "byteLength" : 4908,
            "uri" : "crystal.bin"
        }
    ]
}
