{
    "asset" : {
        "generator" : "Khronos glTF Blender I/O v0.9.36",
        "version" : "2.0"
    },
    "scene" : 0,
    "scenes" : [
        {
            "name" : "Scene",
            "nodes" : [
                0,
                1,
                2,
                3,
                4
            ]
        }
    ],
    "nodes" : [
        {
            "name" : "Light",
            "rotation" : [
                0.16907575726509094,
                0.7558803558349609,
                -0.27217137813568115,
                0.570947527885437
            ],
            "translation" : [
                4.076245307922363,
                5.903861999511719,
                -1.0054539442062378
            ]
        },
        {
            "name" : "Camera",
            "rotation" : [
                0.483536034822464,
                0.33687159419059753,
                -0.20870360732078552,
                0.7804827094078064
            ],
            "translation" : [
                7.358891487121582,
                4.958309173583984,
                6.925790786743164
            ]
        },
        {
            "mesh" : 0,
            "name" : "Cylinder",
            "rotation" : [
                -0.22702054679393768,
                0.7401242256164551,
                -0.6141031384468079,
                -0.15347686409950256
            ],
            "translation" : [
                -0.7310693264007568,
                0.2733652591705322,
                1.2266626358032227
            ]
        },
        {
            "mesh" : 1,
            "name" : "Cube.001",
            "rotation" : [
                -0.018092170357704163,
                0.8119010925292969,
                -0.0026300568133592606,
                0.5835087299346924
            ],
            "scale" : [
                1.027076005935669,
                -0.09469828009605408,
                2.742180585861206
            ],
            "translation" : [
                0.2290792465209961,
                0.4208367168903351,
                -1.7093403339385986
            ]
        },
        {
            "mesh" : 2,
            "name" : "Cube.000",
            "rotation" : [
                -0.5659826993942261,
                0.09965620189905167,
                -0.8173699378967285,
                0.040479954332113266
            ],
            "scale" : [
                1.027076005935669,
                -0.09469828009605408,
                2.742180585861206
            ],
            "translation" : [
                1.2094693183898926,
                0.404983252286911,
                0.9085309505462646
            ]
        }
    ],
    "materials" : [
        {
            "doubleSided" : true,
            "name" : "Material.003",
            "pbrMetallicRoughness" : {
                "baseColorFactor" : [
                    0.012500432319939137,
                    0.011089098639786243,
                    0.021736837923526764,
                    1
                ],
                "metallicFactor" : 0,
                "roughnessFactor" : 0.5
            }
        },
        {
            "doubleSided" : true,
            "name" : "Material.001",
            "pbrMetallicRoughness" : {
                "baseColorFactor" : [
                    0.020870281383395195,
                    0.04474923387169838,
                    0.1254786103963852,
                    1
                ],
                "metallicFactor" : 0,
                "roughnessFactor" : 0.5
            }
        },
        {
            "doubleSided" : true,
            "name" : "Material.005",
            "pbrMetallicRoughness" : {
                "baseColorFactor" : [
                    0.020870281383395195,
                    0.04474923387169838,
                    0.1254786103963852,
                    1
                ],
                "metallicFactor" : 0,
                "roughnessFactor" : 0.5
            }
        }
    ],
    "meshes" : [
        {
            "name" : "Cylinder",
            "primitives" : [
                {
                    "attributes" : {
                        "POSITION" : 0,
                        "NORMAL" : 1,
                        "TEXCOORD_0" : 2
                    },
                    "indices" : 3,
                    "material" : 0
                }
            ]
        },
        {
            "name" : "Cube.002",
            "primitives" : [
                {
                    "attributes" : {
                        "POSITION" : 4,
                        "NORMAL" : 5,
                        "TEXCOORD_0" : 6
                    },
                    "indices" : 7,
                    "material" : 1
                }
            ]
        },
        {
            "name" : "Cube.003",
            "primitives" : [
                {
                    "attributes" : {
                        "POSITION" : 8,
                        "NORMAL" : 9,
                        "TEXCOORD_0" : 10
                    },
                    "indices" : 7,
                    "material" : 2
                }
            ]
        }
    ],
    "accessors" : [
        {
            "bufferView" : 0,
            "componentType" : 5126,
            "count" : 204,
            "max" : [
                0.1385640949010849,
                1.9985008239746094,
                0.40565890073776245
            ],
            "min" : [
                -2.3486666679382324,
                -2.853297710418701,
                -0.4661499261856079
            ],
            "type" : "VEC3"
        },
        {
            "bufferView" : 1,
            "componentType" : 5126,
            "count" : 204,
            "type" : "VEC3"
        },
        {
            "bufferView" : 2,
            "componentType" : 5126,
            "count" : 204,
            "type" : "VEC2"
        },
        {
            "bufferView" : 3,
            "componentType" : 5123,
            "count" : 312,
            "type" : "SCALAR"
        },
        {
            "bufferView" : 4,
            "componentType" : 5126,
            "count" : 628,
            "max" : [
                1,
                3.9366092681884766,
                1
            ],
            "min" : [
                -1,
                -0.9847897887229919,
                -1
            ],
            "type" : "VEC3"
        },
        {
            "bufferView" : 5,
            "componentType" : 5126,
            "count" : 628,
            "type" : "VEC3"
        },
        {
            "bufferView" : 6,
            "componentType" : 5126,
            "count" : 628,
            "type" : "VEC2"
        },
        {
            "bufferView" : 7,
            "componentType" : 5123,
            "count" : 1296,
            "type" : "SCALAR"
        },
        {
            "bufferView" : 8,
            "componentType" : 5126,
            "count" : 628,
            "max" : [
                1,
                3.9366092681884766,
                1
            ],
            "min" : [
                -1,
                -0.9847897887229919,
                -1
            ],
            "type" : "VEC3"
        },
        {
            "bufferView" : 9,
            "componentType" : 5126,
            "count" : 628,
            "type" : "VEC3"
        },
        {
            "bufferView" : 10,
            "componentType" : 5126,
            "count" : 628,
            "type" : "VEC2"
        }
    ],
    "bufferViews" : [
        {
            "buffer" : 0,
            "byteLength" : 2448,
            "byteOffset" : 0
        },
        {
            "buffer" : 0,
            "byteLength" : 2448,
            "byteOffset" : 2448
        },
        {
            "buffer" : 0,
            "byteLength" : 1632,
            "byteOffset" : 4896
        },
        {
            "buffer" : 0,
            "byteLength" : 624,
            "byteOffset" : 6528
        },
        {
            "buffer" : 0,
            "byteLength" : 7536,
            "byteOffset" : 7152
        },
        {
            "buffer" : 0,
            "byteLength" : 7536,
            "byteOffset" : 14688
        },
        {
            "buffer" : 0,
            "byteLength" : 5024,
            "byteOffset" : 22224
        },
        {
            "buffer" : 0,
            "byteLength" : 2592,
            "byteOffset" : 27248
        },
        {
            "buffer" : 0,
            "byteLength" : 7536,
            "byteOffset" : 29840
        },
        {
            "buffer" : 0,
            "byteLength" : 7536,
            "byteOffset" : 37376
        },
        {
            "buffer" : 0,
            "byteLength" : 5024,
            "byteOffset" : 44912
        }
    ],
    "buffers" : [
        {
            "byteLength" : 49936,
            "uri" : "scrap.bin"
        }
    ]
}
