{
  "asset": {
    "version": "2.0",
    "generator": "THREE.GLTFExporter"
  },
  "scenes": [
    {
      "nodes": [
        3,
        7,
        11,
        12
      ],
      "name": "Scene"
    }
  ],
  "scene": 0,
  "nodes": [
    {
      "matrix": [
        0.3,
        0,
        0,
        0,
        0,
        0.3,
        0,
        0,
        0,
        0,
        0.9999999999999994,
        0,
        -0.36698936388724257,
        0,
        0,
        1
      ],
      "name": "Box",
      "mesh": 0
    },
    {
      "matrix": [
        0.3,
        0,
        0,
        0,
        0,
        0.3,
        0,
        0,
        0,
        0,
        0.9999999999999994,
        0,
        -0.0333489736157625,
        0,
        0,
        1
      ],
      "name": "Box",
      "mesh": 1
    },
    {
      "matrix": [
        0.3,
        0,
        0,
        0,
        0,
        0.3,
        0,
        0,
        0,
        0,
        0.9999999999999994,
        0,
        0.3012128045953696,
        0,
        0,
        1
      ],
      "name": "Box",
      "mesh": 2
    },
    {
      "matrix": [
        1,
        0,
        0,
        0,
        0,
        1,
        0,
        0,
        0,
        0,
        1,
        0,
        0.01840906484418231,
        0,
        0.02319844858937503,
        1
      ],
      "name": "Group",
      "children": [
        0,
        1,
        2
      ]
    },
    {
      "matrix": [
        0.3,
        0,
        0,
        0,
        0,
        0.3,
        0,
        0,
        0,
        0,
        0.9999999999999994,
        0,
        -0.36698936388724257,
        0,
        0,
        1
      ],
      "name": "Box",
      "mesh": 3
    },
    {
      "matrix": [
        0.3,
        0,
        0,
        0,
        0,
        0.3,
        0,
        0,
        0,
        0,
        0.9999999999999994,
        0,
        -0.0333489736157625,
        0,
        0,
        1
      ],
      "name": "Box",
      "mesh": 4
    },
    {
      "matrix": [
        0.3,
        0,
        0,
        0,
        0,
        0.3,
        0,
        0,
        0,
        0,
        0.9999999999999994,
        0,
        0.3012128045953696,
        0,
        0,
        1
      ],
      "name": "Box",
      "mesh": 5
    },
    {
      "matrix": [
        2.220446049250313e-16,
        0,
        -1,
        0,
        0,
        1,
        0,
        0,
        1,
        0,
        2.220446049250313e-16,
        0,
        -0.0065825975589585695,
        0.3339335977695948,
        0,
        1
      ],
      "name": "Group",
      "children": [
        4,
        5,
        6
      ]
    },
    {
      "matrix": [
        0.3,
        0,
        0,
        0,
        0,
        0.3,
        0,
        0,
        0,
        0,
        0.9999999999999994,
        0,
        -0.36698936388724257,
        0,
        0,
        1
      ],
      "name": "Box",
      "mesh": 6
    },
    {
      "matrix": [
        0.3,
        0,
        0,
        0,
        0,
        0.3,
        0,
        0,
        0,
        0,
        0.9999999999999994,
        0,
        -0.0333489736157625,
        0,
        0,
        1
      ],
      "name": "Box",
      "mesh": 7
    },
    {
      "matrix": [
        0.3,
        0,
        0,
        0,
        0,
        0.3,
        0,
        0,
        0,
        0,
        0.9999999999999994,
        0,
        0.3012128045953696,
        0,
        0,
        1
      ],
      "name": "Box",
      "mesh": 8
    },
    {
      "matrix": [
        2.220446049250313e-16,
        0,
        -1,
        0,
        0,
        1,
        0,
        0,
        1,
        0,
        2.220446049250313e-16,
        0,
        0,
        -0.33310346768870597,
        0,
        1
      ],
      "name": "Group",
      "children": [
        8,
        9,
        10
      ]
    },
    {
      "matrix": [
        0.9,
        0,
        0,
        0,
        0,
        0.9,
        0,
        0,
        0,
        0,
        0.9,
        0,
        0,
        0,
        0,
        1
      ],
      "name": "Box",
      "mesh": 9
    }
  ],
  "bufferViews": [
    {
      "buffer": 0,
      "byteOffset": 0,
      "byteLength": 288,
      "target": 34962,
      "byteStride": 12
    },
    {
      "buffer": 0,
      "byteOffset": 288,
      "byteLength": 288,
      "target": 34962,
      "byteStride": 12
    },
    {
      "buffer": 0,
      "byteOffset": 576,
      "byteLength": 192,
      "target": 34962,
      "byteStride": 8
    },
    {
      "buffer": 0,
      "byteOffset": 768,
      "byteLength": 72,
      "target": 34963
    },
    {
      "buffer": 0,
      "byteOffset": 840,
      "byteLength": 288,
      "target": 34962,
      "byteStride": 12
    },
    {
      "buffer": 0,
      "byteOffset": 1128,
      "byteLength": 288,
      "target": 34962,
      "byteStride": 12
    },
    {
      "buffer": 0,
      "byteOffset": 1416,
      "byteLength": 192,
      "target": 34962,
      "byteStride": 8
    },
    {
      "buffer": 0,
      "byteOffset": 1608,
      "byteLength": 72,
      "target": 34963
    }
  ],
  "buffers": [
    {
      "byteLength": 1680,
      "uri": "data:application/octet-stream;base64,"
    }
  ],
  "accessors": [
    {
      "bufferView": 0,
      "componentType": 5126,
      "count": 24,
      "max": [
        0.5,
        0.5,
        0.5
      ],
      "min": [
        -0.5,
        -0.5,
        -0.5
      ],
      "type": "VEC3"
    },
    {
      "bufferView": 1,
      "componentType": 5126,
      "count": 24,
      "max": [
        1,
        1,
        1
      ],
      "min": [
        -1,
        -1,
        -1
      ],
      "type": "VEC3"
    },
    {
      "bufferView": 2,
      "componentType": 5126,
      "count": 24,
      "max": [
        1,
        1
      ],
      "min": [
        0,
        0
      ],
      "type": "VEC2"
    },
    {
      "bufferView": 3,
      "componentType": 5123,
      "count": 36,
      "max": [
        23
      ],
      "min": [
        0
      ],
      "type": "SCALAR"
    },
    {
      "bufferView": 4,
      "componentType": 5126,
      "count": 24,
      "max": [
        0.5,
        0.5,
        0.5
      ],
      "min": [
        -0.5,
        -0.5,
        -0.5
      ],
      "type": "VEC3"
    },
    {
      "bufferView": 5,
      "componentType": 5126,
      "count": 24,
      "max": [
        1,
        1,
        1
      ],
      "min": [
        -1,
        -1,
        -1
      ],
      "type": "VEC3"
    },
    {
      "bufferView": 6,
      "componentType": 5126,
      "count": 24,
      "max": [
        1,
        1
      ],
      "min": [
        0,
        0
      ],
      "type": "VEC2"
    },
    {
      "bufferView": 7,
      "componentType": 5123,
      "count": 36,
      "max": [
        23
      ],
      "min": [
        0
      ],
      "type": "SCALAR"
    }
  ],
  "materials": [
    {
      "pbrMetallicRoughness": {
        "metallicFactor": 0.5,
        "roughnessFactor": 0.5
      },
      "emissiveFactor": [
        0.615686274509804,
        0.615686274509804,
        0.615686274509804
      ]
    },
    {
      "pbrMetallicRoughness": {
        "metallicFactor": 0.5,
        "roughnessFactor": 0.5
      },
      "emissiveFactor": [
        0.615686274509804,
        0.615686274509804,
        0.615686274509804
      ]
    }
  ],
  "meshes": [
    {
      "primitives": [
        {
          "mode": 4,
          "attributes": {
            "POSITION": 0,
            "NORMAL": 1,
            "TEXCOORD_0": 2
          },
          "indices": 3,
          "material": 0
        }
      ]
    },
    {
      "primitives": [
        {
          "mode": 4,
          "attributes": {
            "POSITION": 0,
            "NORMAL": 1,
            "TEXCOORD_0": 2
          },
          "indices": 3,
          "material": 0
        }
      ]
    },
    {
      "primitives": [
        {
          "mode": 4,
          "attributes": {
            "POSITION": 0,
            "NORMAL": 1,
            "TEXCOORD_0": 2
          },
          "indices": 3,
          "material": 0
        }
      ]
    },
    {
      "primitives": [
        {
          "mode": 4,
          "attributes": {
            "POSITION": 0,
            "NORMAL": 1,
            "TEXCOORD_0": 2
          },
          "indices": 3,
          "material": 0
        }
      ]
    },
    {
      "primitives": [
        {
          "mode": 4,
          "attributes": {
            "POSITION": 0,
            "NORMAL": 1,
            "TEXCOORD_0": 2
          },
          "indices": 3,
          "material": 0
        }
      ]
    },
    {
      "primitives": [
        {
          "mode": 4,
          "attributes": {
            "POSITION": 0,
            "NORMAL": 1,
            "TEXCOORD_0": 2
          },
          "indices": 3,
          "material": 0
        }
      ]
    },
    {
      "primitives": [
        {
          "mode": 4,
          "attributes": {
            "POSITION": 0,
            "NORMAL": 1,
            "TEXCOORD_0": 2
          },
          "indices": 3,
          "material": 0
        }
      ]
    },
    {
      "primitives": [
        {
          "mode": 4,
          "attributes": {
            "POSITION": 0,
            "NORMAL": 1,
            "TEXCOORD_0": 2
          },
          "indices": 3,
          "material": 0
        }
      ]
    },
    {
      "primitives": [
        {
          "mode": 4,
          "attributes": {
            "POSITION": 0,
            "NORMAL": 1,
            "TEXCOORD_0": 2
          },
          "indices": 3,
          "material": 0
        }
      ]
    },
    {
      "primitives": [
        {
          "mode": 4,
          "attributes": {
            "POSITION": 4,
            "NORMAL": 5,
            "TEXCOORD_0": 6
          },
          "indices": 7,
          "material": 1
        }
      ]
    }
  ]
}