{
  "asset": {
    "version": "2.0",
    "generator": "THREE.GLTFExporter"
  },
  "scenes": [
    {
      "nodes": [
        0,
        7,
        14,
        21,
        28,
        31
      ],
      "name": "Scene"
    }
  ],
  "scene": 0,
  "nodes": [
    {
      "matrix": [
        0.95,
        0,
        0,
        0,
        0,
        0.95,
        0,
        0,
        0,
        0,
        0.95,
        0,
        0,
        0,
        0,
        1
      ],
      "name": "Box",
      "mesh": 0
    },
    {
      "matrix": [
        0.95,
        0,
        0,
        0,
        0,
        0.9499999999999995,
        0,
        0,
        0,
        0,
        0.9499999999999995,
        0,
        -0.375,
        -0.375,
        -0.25,
        1
      ],
      "name": "Box",
      "mesh": 1
    },
    {
      "matrix": [
        0.95,
        0,
        0,
        0,
        0,
        0.95,
        0,
        0,
        0,
        0,
        0.95,
        0,
        -0.375,
        -0.375,
        0.25,
        1
      ],
      "name": "Box",
      "mesh": 2
    },
    {
      "matrix": [
        2.1116441928370476e-16,
        0,
        -0.951,
        0,
        0,
        0.951,
        0,
        0,
        0.951,
        0,
        2.1116441928370476e-16,
        0,
        0,
        -0.375,
        0.3745752941849718,
        1
      ],
      "name": "Box",
      "mesh": 3
    },
    {
      "matrix": [
        0.949,
        0,
        0,
        0,
        0,
        0.949,
        0,
        0,
        0,
        0,
        0.949,
        0,
        0.375,
        -0.375,
        0.25,
        1
      ],
      "name": "Box",
      "mesh": 4
    },
    {
      "matrix": [
        0.95,
        0,
        0,
        0,
        0,
        0.95,
        0,
        0,
        0,
        0,
        0.95,
        0,
        0.375,
        -0.375,
        -0.25,
        1
      ],
      "name": "Box",
      "mesh": 5
    },
    {
      "matrix": [
        4.2188474935755937e-16,
        0,
        -0.9499999999999997,
        0,
        0,
        0.95,
        0,
        0,
        0.9499999999999997,
        0,
        4.2188474935755937e-16,
        0,
        0.00019149937327644917,
        -0.375,
        -0.3745618385022632,
        1
      ],
      "name": "Box",
      "mesh": 6
    },
    {
      "matrix": [
        1,
        0,
        0,
        0,
        0,
        0.99999390765779,
        -0.0034906514152237304,
        0,
        0,
        0.0034906514152237304,
        0.99999390765779,
        0,
        0,
        0,
        0,
        1
      ],
      "name": "Group",
      "children": [
        1,
        2,
        3,
        4,
        5,
        6
      ]
    },
    {
      "matrix": [
        0.95,
        0,
        0,
        0,
        0,
        0.9499999999999995,
        0,
        0,
        0,
        0,
        0.9499999999999995,
        0,
        -0.375,
        -0.375,
        -0.25,
        1
      ],
      "name": "Box",
      "mesh": 7
    },
    {
      "matrix": [
        0.95,
        0,
        0,
        0,
        0,
        0.95,
        0,
        0,
        0,
        0,
        0.95,
        0,
        -0.375,
        -0.375,
        0.25,
        1
      ],
      "name": "Box",
      "mesh": 8
    },
    {
      "matrix": [
        2.1116441928370476e-16,
        0,
        -0.951,
        0,
        0,
        0.951,
        0,
        0,
        0.951,
        0,
        2.1116441928370476e-16,
        0,
        0,
        -0.375,
        0.3745752941849718,
        1
      ],
      "name": "Box",
      "mesh": 9
    },
    {
      "matrix": [
        0.949,
        0,
        0,
        0,
        0,
        0.949,
        0,
        0,
        0,
        0,
        0.949,
        0,
        0.375,
        -0.375,
        0.25,
        1
      ],
      "name": "Box",
      "mesh": 10
    },
    {
      "matrix": [
        0.95,
        0,
        0,
        0,
        0,
        0.95,
        0,
        0,
        0,
        0,
        0.95,
        0,
        0.375,
        -0.375,
        -0.25,
        1
      ],
      "name": "Box",
      "mesh": 11
    },
    {
      "matrix": [
        4.2188474935755937e-16,
        0,
        -0.9499999999999997,
        0,
        0,
        0.95,
        0,
        0,
        0.9499999999999997,
        0,
        4.2188474935755937e-16,
        0,
        0.00019149937327644917,
        -0.375,
        -0.3745618385022632,
        1
      ],
      "name": "Box",
      "mesh": 12
    },
    {
      "matrix": [
        1.1102230246251562e-16,
        0.00523596383141958,
        -0.9999862922474264,
        0,
        0,
        0.999986292247426,
        0.005235963831419577,
        0,
        0.9999999999999996,
        -8.673617379884032e-19,
        1.110223024625156e-16,
        0,
        0,
        0.252294509991435,
        0.0019737809623124325,
        1
      ],
      "name": "Group",
      "children": [
        8,
        9,
        10,
        11,
        12,
        13
      ]
    },
    {
      "matrix": [
        0.95,
        0,
        0,
        0,
        0,
        0.9499999999999995,
        0,
        0,
        0,
        0,
        0.9499999999999995,
        0,
        -0.375,
        -0.375,
        -0.25,
        1
      ],
      "name": "Box",
      "mesh": 13
    },
    {
      "matrix": [
        0.95,
        0,
        0,
        0,
        0,
        0.95,
        0,
        0,
        0,
        0,
        0.95,
        0,
        -0.375,
        -0.375,
        0.25,
        1
      ],
      "name": "Box",
      "mesh": 14
    },
    {
      "matrix": [
        2.1116441928370476e-16,
        0,
        -0.951,
        0,
        0,
        0.951,
        0,
        0,
        0.951,
        0,
        2.1116441928370476e-16,
        0,
        0,
        -0.375,
        0.3745752941849718,
        1
      ],
      "name": "Box",
      "mesh": 15
    },
    {
      "matrix": [
        0.949,
        0,
        0,
        0,
        0,
        0.949,
        0,
        0,
        0,
        0,
        0.949,
        0,
        0.375,
        -0.375,
        0.25,
        1
      ],
      "name": "Box",
      "mesh": 16
    },
    {
      "matrix": [
        0.95,
        0,
        0,
        0,
        0,
        0.95,
        0,
        0,
        0,
        0,
        0.95,
        0,
        0.375,
        -0.375,
        -0.25,
        1
      ],
      "name": "Box",
      "mesh": 17
    },
    {
      "matrix": [
        4.2188474935755937e-16,
        0,
        -0.9499999999999997,
        0,
        0,
        0.95,
        0,
        0,
        0.9499999999999997,
        0,
        4.2188474935755937e-16,
        0,
        0.00019149937327644917,
        -0.375,
        -0.3745618385022632,
        1
      ],
      "name": "Box",
      "mesh": 18
    },
    {
      "matrix": [
        1,
        0,
        0,
        0,
        0,
        0.9999999999999996,
        0,
        0,
        0,
        0,
        0.9999999999999996,
        0,
        0,
        0.49999650227883874,
        0,
        1
      ],
      "name": "Group",
      "children": [
        15,
        16,
        17,
        18,
        19,
        20
      ]
    },
    {
      "matrix": [
        0.95,
        0,
        0,
        0,
        0,
        0.9499999999999995,
        0,
        0,
        0,
        0,
        0.9499999999999995,
        0,
        -0.375,
        -0.375,
        -0.25,
        1
      ],
      "name": "Box",
      "mesh": 19
    },
    {
      "matrix": [
        0.95,
        0,
        0,
        0,
        0,
        0.95,
        0,
        0,
        0,
        0,
        0.95,
        0,
        -0.375,
        -0.375,
        0.25,
        1
      ],
      "name": "Box",
      "mesh": 20
    },
    {
      "matrix": [
        2.1116441928370476e-16,
        0,
        -0.951,
        0,
        0,
        0.951,
        0,
        0,
        0.951,
        0,
        2.1116441928370476e-16,
        0,
        0,
        -0.375,
        0.3745752941849718,
        1
      ],
      "name": "Box",
      "mesh": 21
    },
    {
      "matrix": [
        0.949,
        0,
        0,
        0,
        0,
        0.949,
        0,
        0,
        0,
        0,
        0.949,
        0,
        0.375,
        -0.375,
        0.25,
        1
      ],
      "name": "Box",
      "mesh": 22
    },
    {
      "matrix": [
        0.95,
        0,
        0,
        0,
        0,
        0.95,
        0,
        0,
        0,
        0,
        0.95,
        0,
        0.375,
        -0.375,
        -0.25,
        1
      ],
      "name": "Box",
      "mesh": 23
    },
    {
      "matrix": [
        4.2188474935755937e-16,
        0,
        -0.9499999999999997,
        0,
        0,
        0.95,
        0,
        0,
        0.9499999999999997,
        0,
        4.2188474935755937e-16,
        0,
        0.00019149937327644917,
        -0.375,
        -0.3745618385022632,
        1
      ],
      "name": "Box",
      "mesh": 24
    },
    {
      "matrix": [
        0.006981260297961755,
        0,
        -0.9999756307053947,
        0,
        0,
        0.9999999999999996,
        0,
        0,
        0.9999756307053943,
        0,
        0.006981260297961752,
        0,
        0,
        0.7514275548642864,
        0,
        1
      ],
      "name": "Group",
      "children": [
        22,
        23,
        24,
        25,
        26,
        27
      ]
    },
    {
      "matrix": [
        4.2188474935755937e-16,
        0,
        -0.9499999999999997,
        0,
        0,
        0.95,
        0,
        0,
        0.9499999999999997,
        0,
        4.2188474935755937e-16,
        0,
        0.00148705860541435,
        0.37894798916984873,
        0.12323795215962152,
        1
      ],
      "name": "Box",
      "mesh": 25
    },
    {
      "matrix": [
        4.2188474935755937e-16,
        0,
        -0.9499999999999997,
        0,
        0,
        0.95,
        0,
        0,
        0.9499999999999997,
        0,
        4.2188474935755937e-16,
        0,
        0.0007642495125966635,
        0.378955460841437,
        -0.11301690359062935,
        1
      ],
      "name": "Box",
      "mesh": 26
    },
    {
      "name": "Group",
      "children": [
        29,
        30
      ]
    }
  ],
  "bufferViews": [
    {
      "buffer": 0,
      "byteOffset": 0,
      "byteLength": 288,
      "target": 34962,
      "byteStride": 12
    },
    {
      "buffer": 0,
      "byteOffset": 288,
      "byteLength": 288,
      "target": 34962,
      "byteStride": 12
    },
    {
      "buffer": 0,
      "byteOffset": 576,
      "byteLength": 192,
      "target": 34962,
      "byteStride": 8
    },
    {
      "buffer": 0,
      "byteOffset": 768,
      "byteLength": 72,
      "target": 34963
    },
    {
      "buffer": 0,
      "byteOffset": 840,
      "byteLength": 288,
      "target": 34962,
      "byteStride": 12
    },
    {
      "buffer": 0,
      "byteOffset": 1128,
      "byteLength": 288,
      "target": 34962,
      "byteStride": 12
    },
    {
      "buffer": 0,
      "byteOffset": 1416,
      "byteLength": 192,
      "target": 34962,
      "byteStride": 8
    },
    {
      "buffer": 0,
      "byteOffset": 1608,
      "byteLength": 72,
      "target": 34963
    }
  ],
  "buffers": [
    {
      "byteLength": 1680,
      "uri": "data:application/octet-stream;base64,"
    }
  ],
  "accessors": [
    {
      "bufferView": 0,
      "componentType": 5126,
      "count": 24,
      "max": [
        0.5,
        0.5,
        0.5
      ],
      "min": [
        -0.5,
        -0.5,
        -0.5
      ],
      "type": "VEC3"
    },
    {
      "bufferView": 1,
      "componentType": 5126,
      "count": 24,
      "max": [
        1,
        1,
        1
      ],
      "min": [
        -1,
        -1,
        -1
      ],
      "type": "VEC3"
    },
    {
      "bufferView": 2,
      "componentType": 5126,
      "count": 24,
      "max": [
        1,
        1
      ],
      "min": [
        0,
        0
      ],
      "type": "VEC2"
    },
    {
      "bufferView": 3,
      "componentType": 5123,
      "count": 36,
      "max": [
        23
      ],
      "min": [
        0
      ],
      "type": "SCALAR"
    },
    {
      "bufferView": 4,
      "componentType": 5126,
      "count": 24,
      "max": [
        0.125,
        0.125,
        0.25
      ],
      "min": [
        -0.125,
        -0.125,
        -0.25
      ],
      "type": "VEC3"
    },
    {
      "bufferView": 5,
      "componentType": 5126,
      "count": 24,
      "max": [
        1,
        1,
        1
      ],
      "min": [
        -1,
        -1,
        -1
      ],
      "type": "VEC3"
    },
    {
      "bufferView": 6,
      "componentType": 5126,
      "count": 24,
      "max": [
        1,
        1
      ],
      "min": [
        0,
        0
      ],
      "type": "VEC2"
    },
    {
      "bufferView": 7,
      "componentType": 5123,
      "count": 36,
      "max": [
        23
      ],
      "min": [
        0
      ],
      "type": "SCALAR"
    }
  ],
  "materials": [
    {
      "pbrMetallicRoughness": {
        "baseColorFactor": [
          0.09411764705882353,
          0.5098039215686274,
          0.5058823529411764,
          1
        ],
        "metallicFactor": 0.5,
        "roughnessFactor": 0.5
      },
      "emissiveFactor": [
        0.03529411764705882,
        0.03137254901960784,
        0.07058823529411765
      ]
    },
    {
      "pbrMetallicRoughness": {
        "baseColorFactor": [
          0.615686274509804,
          0.615686274509804,
          0.615686274509804,
          1
        ],
        "metallicFactor": 0.22,
        "roughnessFactor": 0.84
      },
      "emissiveFactor": [
        0.06274509803921569,
        0.12549019607843137,
        0.19607843137254902
      ]
    }
  ],
  "meshes": [
    {
      "primitives": [
        {
          "mode": 4,
          "attributes": {
            "POSITION": 0,
            "NORMAL": 1,
            "TEXCOORD_0": 2
          },
          "indices": 3,
          "material": 0
        }
      ]
    },
    {
      "primitives": [
        {
          "mode": 4,
          "attributes": {
            "POSITION": 4,
            "NORMAL": 5,
            "TEXCOORD_0": 6
          },
          "indices": 7,
          "material": 1
        }
      ]
    },
    {
      "primitives": [
        {
          "mode": 4,
          "attributes": {
            "POSITION": 4,
            "NORMAL": 5,
            "TEXCOORD_0": 6
          },
          "indices": 7,
          "material": 1
        }
      ]
    },
    {
      "primitives": [
        {
          "mode": 4,
          "attributes": {
            "POSITION": 4,
            "NORMAL": 5,
            "TEXCOORD_0": 6
          },
          "indices": 7,
          "material": 1
        }
      ]
    },
    {
      "primitives": [
        {
          "mode": 4,
          "attributes": {
            "POSITION": 4,
            "NORMAL": 5,
            "TEXCOORD_0": 6
          },
          "indices": 7,
          "material": 1
        }
      ]
    },
    {
      "primitives": [
        {
          "mode": 4,
          "attributes": {
            "POSITION": 4,
            "NORMAL": 5,
            "TEXCOORD_0": 6
          },
          "indices": 7,
          "material": 1
        }
      ]
    },
    {
      "primitives": [
        {
          "mode": 4,
          "attributes": {
            "POSITION": 4,
            "NORMAL": 5,
            "TEXCOORD_0": 6
          },
          "indices": 7,
          "material": 1
        }
      ]
    },
    {
      "primitives": [
        {
          "mode": 4,
          "attributes": {
            "POSITION": 4,
            "NORMAL": 5,
            "TEXCOORD_0": 6
          },
          "indices": 7,
          "material": 1
        }
      ]
    },
    {
      "primitives": [
        {
          "mode": 4,
          "attributes": {
            "POSITION": 4,
            "NORMAL": 5,
            "TEXCOORD_0": 6
          },
          "indices": 7,
          "material": 1
        }
      ]
    },
    {
      "primitives": [
        {
          "mode": 4,
          "attributes": {
            "POSITION": 4,
            "NORMAL": 5,
            "TEXCOORD_0": 6
          },
          "indices": 7,
          "material": 1
        }
      ]
    },
    {
      "primitives": [
        {
          "mode": 4,
          "attributes": {
            "POSITION": 4,
            "NORMAL": 5,
            "TEXCOORD_0": 6
          },
          "indices": 7,
          "material": 1
        }
      ]
    },
    {
      "primitives": [
        {
          "mode": 4,
          "attributes": {
            "POSITION": 4,
            "NORMAL": 5,
            "TEXCOORD_0": 6
          },
          "indices": 7,
          "material": 1
        }
      ]
    },
    {
      "primitives": [
        {
          "mode": 4,
          "attributes": {
            "POSITION": 4,
            "NORMAL": 5,
            "TEXCOORD_0": 6
          },
          "indices": 7,
          "material": 1
        }
      ]
    },
    {
      "primitives": [
        {
          "mode": 4,
          "attributes": {
            "POSITION": 4,
            "NORMAL": 5,
            "TEXCOORD_0": 6
          },
          "indices": 7,
          "material": 1
        }
      ]
    },
    {
      "primitives": [
        {
          "mode": 4,
          "attributes": {
            "POSITION": 4,
            "NORMAL": 5,
            "TEXCOORD_0": 6
          },
          "indices": 7,
          "material": 1
        }
      ]
    },
    {
      "primitives": [
        {
          "mode": 4,
          "attributes": {
            "POSITION": 4,
            "NORMAL": 5,
            "TEXCOORD_0": 6
          },
          "indices": 7,
          "material": 1
        }
      ]
    },
    {
      "primitives": [
        {
          "mode": 4,
          "attributes": {
            "POSITION": 4,
            "NORMAL": 5,
            "TEXCOORD_0": 6
          },
          "indices": 7,
          "material": 1
        }
      ]
    },
    {
      "primitives": [
        {
          "mode": 4,
          "attributes": {
            "POSITION": 4,
            "NORMAL": 5,
            "TEXCOORD_0": 6
          },
          "indices": 7,
          "material": 1
        }
      ]
    },
    {
      "primitives": [
        {
          "mode": 4,
          "attributes": {
            "POSITION": 4,
            "NORMAL": 5,
            "TEXCOORD_0": 6
          },
          "indices": 7,
          "material": 1
        }
      ]
    },
    {
      "primitives": [
        {
          "mode": 4,
          "attributes": {
            "POSITION": 4,
            "NORMAL": 5,
            "TEXCOORD_0": 6
          },
          "indices": 7,
          "material": 1
        }
      ]
    },
    {
      "primitives": [
        {
          "mode": 4,
          "attributes": {
            "POSITION": 4,
            "NORMAL": 5,
            "TEXCOORD_0": 6
          },
          "indices": 7,
          "material": 1
        }
      ]
    },
    {
      "primitives": [
        {
          "mode": 4,
          "attributes": {
            "POSITION": 4,
            "NORMAL": 5,
            "TEXCOORD_0": 6
          },
          "indices": 7,
          "material": 1
        }
      ]
    },
    {
      "primitives": [
        {
          "mode": 4,
          "attributes": {
            "POSITION": 4,
            "NORMAL": 5,
            "TEXCOORD_0": 6
          },
          "indices": 7,
          "material": 1
        }
      ]
    },
    {
      "primitives": [
        {
          "mode": 4,
          "attributes": {
            "POSITION": 4,
            "NORMAL": 5,
            "TEXCOORD_0": 6
          },
          "indices": 7,
          "material": 1
        }
      ]
    },
    {
      "primitives": [
        {
          "mode": 4,
          "attributes": {
            "POSITION": 4,
            "NORMAL": 5,
            "TEXCOORD_0": 6
          },
          "indices": 7,
          "material": 1
        }
      ]
    },
    {
      "primitives": [
        {
          "mode": 4,
          "attributes": {
            "POSITION": 4,
            "NORMAL": 5,
            "TEXCOORD_0": 6
          },
          "indices": 7,
          "material": 1
        }
      ]
    },
    {
      "primitives": [
        {
          "mode": 4,
          "attributes": {
            "POSITION": 4,
            "NORMAL": 5,
            "TEXCOORD_0": 6
          },
          "indices": 7,
          "material": 1
        }
      ]
    }
  ]
}